<svg width="0" height="0" class="hidden">
  <symbol id="dashboard" xmlns="http://www.w3.org/2000/svg" viewBox="0 0 16 16">
    <rect id="Rectangle_2390" width="7" height="7" rx="2" fill="#767171"></rect>
    <rect id="Rectangle_2391" width="7" height="7" rx="2" transform="translate(9)" fill="#767171"></rect>
    <rect id="Rectangle_2392" width="7" height="7" rx="2" transform="translate(0 9)" fill="#767171"></rect>
    <rect id="Rectangle_2393" width="7" height="7" rx="2" transform="translate(9 9)" fill="#767171"></rect>
  </symbol>
  <symbol xmlns="http://www.w3.org/2000/svg" viewBox="0 0 16 16" id="device">
    <g id="Group_4677" transform="translate(39 -524)">
      <g id="Group_4678">
        <path id="Path_8923" d="M0,0H16V16H0Z" transform="translate(-39 524)" fill="none"></path>
        <g id="fi-sr-tablet" transform="translate(-40 524)">
          <path id="Path_8921" d="M9.333,19.667a.667.667,0,0,1-1.333,0V19H2a3.337,3.337,0,0,0,3.333,3.333H12A3.337,3.337,0,0,0,15.333,19h-6Z" transform="translate(0 -6.333)" fill="#767171"></path>
          <path id="Path_8922" d="M12,0H5.333A3.337,3.337,0,0,0,2,3.333v8H15.333v-8A3.337,3.337,0,0,0,12,0Z" transform="translate(0)" fill="#767171"></path>
        </g>
      </g>
    </g>
  </symbol>
  <symbol xmlns="http://www.w3.org/2000/svg" viewBox="0 0 16.452 16" id="merchant">
    <g id="Group_4529" transform="translate(-5748.774 2855)">
      <g id="briefcase_3_" transform="translate(5748.774 -2853.629)">
        <g id="Group_1768">
          <g id="Group_1767">
            <path id="Path_8678" d="M15.081,44.671H11.654V44a1.356,1.356,0,0,0-1.371-1.337H6.17A1.356,1.356,0,0,0,4.8,44v.668H1.371A1.356,1.356,0,0,0,0,46.008v2.005A1.356,1.356,0,0,0,1.371,49.35H6.855v-.334a.338.338,0,0,1,.343-.334H9.254a.338.338,0,0,1,.343.334v.334h5.484a1.356,1.356,0,0,0,1.371-1.337V46.008A1.356,1.356,0,0,0,15.081,44.671Zm-4.8,0H6.17V44h4.113Z" transform="translate(0 -42.666)" fill="#767171"></path>
            <path id="Path_8679" d="M16.262,266.419a.351.351,0,0,0-.36.033,1.376,1.376,0,0,1-.821.275H9.6v1a.338.338,0,0,1-.343.334H7.2a.338.338,0,0,1-.343-.334v-1H1.371a1.376,1.376,0,0,1-.821-.275.348.348,0,0,0-.36-.033.334.334,0,0,0-.19.3v4.687a1.356,1.356,0,0,0,1.371,1.337h13.71a1.356,1.356,0,0,0,1.371-1.337v-4.687A.334.334,0,0,0,16.262,266.419Z" transform="translate(0 -259.032)" fill="#767171"></path>
          </g>
        </g>
      </g>
      <g id="IconBG" transform="translate(5749 -2855)">
        <rect id="Rectangle_23" width="15.548" height="16" fill="none"></rect>
      </g>
    </g>
  </symbol>
  <symbol xmlns="http://www.w3.org/2000/svg" viewBox="0 0 16 16" id="dispute">
    <path id="fi-sr-comment-alt" d="M13.333,0H2.667A2.667,2.667,0,0,0,0,2.667v8a2.667,2.667,0,0,0,2.667,2.667H4.6l2.967,2.509a.667.667,0,0,0,.861,0L11.4,13.333h1.933A2.667,2.667,0,0,0,16,10.667v-8A2.667,2.667,0,0,0,13.333,0ZM4.667,3.333H8A.667.667,0,0,1,8,4.667H4.667a.667.667,0,0,1,0-1.333ZM11.333,10H4.667a.667.667,0,1,1,0-1.333h6.667a.667.667,0,0,1,0,1.333Zm0-2.667H4.667A.667.667,0,0,1,4.667,6h6.667a.667.667,0,0,1,0,1.333Z" fill="#767171"></path>
  </symbol>
  <symbol xmlns="http://www.w3.org/2000/svg" viewBox="0 0 16 16" id="pay">
    <g id="Group_4679" transform="translate(69 -381)">
      <rect id="Rectangle_2489" width="16" height="16" transform="translate(-69 381)" fill="none"></rect>
      <g id="fi-sr-credit-card" transform="translate(-69 380)">
        <path id="Path_8924" d="M12.658,3H3.331A3.3,3.3,0,0,0,0,6.331H15.989A3.3,3.3,0,0,0,12.658,3Z" fill="#767171"></path>
        <path id="Path_8925" d="M0,14a3.3,3.3,0,0,0,3.331,3.331h9.327A3.3,3.3,0,0,0,15.989,14V10H0Zm4.664-.333a1.025,1.025,0,0,1-1,1,1,1,0,0,1,0-2,1.025,1.025,0,0,1,1,1" transform="translate(0 -2.336)" fill="#767171"></path>
      </g>
    </g>
  </symbol>
  <symbol xmlns="http://www.w3.org/2000/svg" viewBox="0 0 16 15.848" id="product">
    <g id="fi-sr-layers" transform="translate(0 -0.227)">
      <path id="Path_8918" d="M14.989,10.923,8,14.936,1.01,10.923a.684.684,0,0,0-.915.219.622.622,0,0,0,.229.875l7.333,4.209a.693.693,0,0,0,.687,0l7.333-4.209a.622.622,0,0,0,.229-.875.684.684,0,0,0-.915-.219Z" transform="translate(0 -3.362)" fill="#767171"></path>
      <path id="Path_8919" d="M14.989,15.491,8,19.5,1.01,15.491A.684.684,0,0,0,.1,15.71a.622.622,0,0,0,.229.875l7.333,4.209a.693.693,0,0,0,.687,0l7.333-4.209a.622.622,0,0,0,.229-.875.684.684,0,0,0-.915-.219Z" transform="translate(0 -4.81)" fill="#767171"></path>
      <path id="Path_8920" d="M.323,5.412,6.979,9.233a2.057,2.057,0,0,0,2.041,0l6.656-3.821a.624.624,0,0,0,0-1.093L9.02.5A2.059,2.059,0,0,0,6.979.5L.323,4.319a.624.624,0,0,0,0,1.093Z" transform="translate(0 0)" fill="#767171"></path>
    </g>
  </symbol>
  <symbol xmlns="http://www.w3.org/2000/svg" viewBox="0 0 16.408 16.409" id="report">
    <g id="Group_4530" transform="translate(-5691.796 2796)">
      <g id="pie-chart_1_" transform="translate(5691.796 -2796)">
        <path id="Path_8680" d="M165.914,87.106h-.489v6.766l-4.012,5.438.393.29a6.922,6.922,0,1,0,4.107-12.494Z" transform="translate(-156.428 -84.541)" fill="#767171"></path>
        <path id="Path_8681" d="M2.012,118.691a9.269,9.269,0,0,0-1.112,1.5,6.921,6.921,0,0,0,.671,7.759,8.8,8.8,0,0,0,1.652,1.491L7.6,123.51Z" transform="translate(-0.016 -115.097)" fill="#767171"></path>
        <path id="Path_8682" d="M85.738,0a6.734,6.734,0,0,0-2.89.524,6.743,6.743,0,0,0-2.285,1.848l5.175,4.463Z" transform="translate(-78.001)" fill="#767171"></path>
      </g>
      <g id="IconBG" transform="translate(5692 -2796)">
        <rect id="Rectangle_23" width="15.592" height="15.592" fill="none"></rect>
      </g>
    </g>
  </symbol>
  <symbol xmlns="http://www.w3.org/2000/svg" viewBox="0 0 16 16" id="shop">
    <g id="Group_4534" transform="translate(-5634 2488)">
      <g id="bank-building_1_" transform="translate(5634 -2488)">
        <g id="Layer_1_78_" transform="translate(0 0)">
          <g id="Group_1770">
            <path id="Path_8688" d="M14.867,42.718H.708a.729.729,0,0,0,0,1.458H14.866a.729.729,0,0,0,0-1.458Z" transform="translate(0 -28.594)" fill="#767171"></path>
            <path id="Path_8689" d="M3.374,23.1a.73.73,0,0,0,0,1.459H15.716a.73.73,0,0,0,0-1.459H15.54V16.539h.176a.364.364,0,0,0,0-.728H3.374a.364.364,0,0,0,0,.728h.176V23.1H3.374Zm10.755-6.561V23.1H12.014v-6.56Zm-3.526,0V23.1H8.487v-6.56Zm-5.642,0H7.077V23.1H4.961Z" transform="translate(-1.758 -10.872)" fill="#767171"></path>
            <path id="Path_8690" d="M.708,4.749H14.874a.718.718,0,0,0,.708-.729.728.728,0,0,0-.478-.69L8.078.076a.691.691,0,0,0-.581,0L.418,3.355a.735.735,0,0,0-.4.818A.713.713,0,0,0,.708,4.749Z" transform="translate(0 -0.012)" fill="#767171"></path>
          </g>
        </g>
      </g>
      <g id="IconBG" transform="translate(5634 -2488)">
        <rect id="Rectangle_23" width="16" height="16" fill="none"></rect>
      </g>
    </g>
  </symbol>
  <symbol xmlns="http://www.w3.org/2000/svg" viewBox="0 0 16 16.53" id="user">
    <g id="Group_4528" transform="translate(-5784 2940)">
      <g id="IconBG" transform="translate(5784 -2940)">
        <rect id="Rectangle_23" width="16" height="14.939" fill="none"></rect>
      </g>
      <g id="user_17_" transform="translate(5784.688 -2940)">
        <g id="Group_1764" transform="translate(2.875)">
          <g id="Group_1763">
            <path id="Path_8676" d="M125.389,0a4.389,4.389,0,1,0,4.389,4.389A4.394,4.394,0,0,0,125.389,0Z" transform="translate(-121)" fill="#767171"></path>
          </g>
        </g>
        <g id="Group_1766" transform="translate(0 9.637)">
          <g id="Group_1765">
            <path id="Path_8677" d="M43.687,301.892A6.192,6.192,0,0,0,39.233,300H37.3a6.192,6.192,0,0,0-4.454,1.892A6.42,6.42,0,0,0,31,306.405a.486.486,0,0,0,.484.488h13.56a.486.486,0,0,0,.484-.488A6.42,6.42,0,0,0,43.687,301.892Z" transform="translate(-31 -300)" fill="#767171"></path>
          </g>
        </g>
      </g>
    </g>
  </symbol>

  <symbol xmlns="http://www.w3.org/2000/svg" viewBox="0 0 24 24" id="entities">
    <g clip-path="url(#clip0_744_27890)">
      <path d="M10.007 3L8 2.986C7.9963 2.19278 7.67859 1.43331 7.11639 0.873724C6.55418 0.314139 5.79323 -8.63726e-06 5 1.78109e-10L3 1.7811e-10C2.20435 1.7811e-10 1.44129 0.31607 0.87868 0.87868C0.31607 1.44129 0 2.20435 0 3L0 5C-2.16263e-06 5.79444 0.315107 6.55644 0.876203 7.11885C1.4373 7.68126 2.19856 7.99815 2.993 8L2.979 9.993C2.97808 10.1244 3.00306 10.2547 3.05253 10.3764C3.102 10.4982 3.17497 10.609 3.26729 10.7025C3.3596 10.796 3.46945 10.8704 3.59054 10.9215C3.71163 10.9725 3.84159 10.9992 3.973 11H3.979C4.24301 11 4.49631 10.8956 4.68364 10.7096C4.87098 10.5236 4.97715 10.271 4.979 10.007L4.993 8H5C5.79565 8 6.55871 7.68393 7.12132 7.12132C7.68393 6.55871 8 5.79565 8 5V4.986L9.993 5H10C10.1313 5.00046 10.2614 4.97505 10.3829 4.92522C10.5045 4.87539 10.6149 4.80212 10.7081 4.70958C10.8013 4.61705 10.8754 4.50707 10.926 4.38592C10.9767 4.26477 11.003 4.13482 11.0035 4.0035C11.004 3.87218 10.9785 3.74205 10.9287 3.62055C10.8789 3.49905 10.8056 3.38855 10.7131 3.29537C10.6205 3.20218 10.5106 3.12814 10.3894 3.07746C10.2683 3.02678 10.1383 3.00046 10.007 3Z" fill="#767171"/>
      <path d="M20.9996 0H18.9996C18.2052 -2.16263e-06 17.4432 0.315107 16.8808 0.876203C16.3183 1.4373 16.0015 2.19856 15.9996 2.993L14.0056 2.979H13.9996C13.7344 2.97807 13.4797 3.08254 13.2915 3.26942C13.1033 3.4563 12.997 3.71028 12.9961 3.9755C12.9952 4.24072 13.0996 4.49544 13.2865 4.68363C13.4734 4.87182 13.7274 4.97807 13.9926 4.979L15.9996 4.993V5C15.9996 5.79565 16.3157 6.55871 16.8783 7.12132C17.4409 7.68393 18.204 8 18.9996 8H19.0136L18.9996 9.993C18.9987 10.1243 19.0236 10.2545 19.073 10.3762C19.1224 10.4979 19.1953 10.6087 19.2875 10.7022C19.3797 10.7957 19.4895 10.8701 19.6104 10.9212C19.7314 10.9723 19.8613 10.9991 19.9926 11H19.9996C20.2636 11 20.5169 10.8956 20.7042 10.7096C20.8916 10.5236 20.9978 10.271 20.9996 10.007L21.0136 8C21.8068 7.9963 22.5663 7.67859 23.1259 7.11639C23.6855 6.55418 23.9996 5.79323 23.9996 5V3C23.9996 2.20435 23.6835 1.44129 23.1209 0.87868C22.5583 0.31607 21.7952 0 20.9996 0V0Z" fill="#767171"/>
      <path d="M21.0066 16.0005L21.0206 14.0065C21.0214 13.8752 20.9963 13.745 20.9468 13.6233C20.8973 13.5017 20.8243 13.391 20.732 13.2976C20.6397 13.2042 20.5299 13.1299 20.4088 13.0789C20.2878 13.0279 20.1579 13.0013 20.0266 13.0005H20.0206C19.7566 13.0005 19.5033 13.1049 19.316 13.2909C19.1286 13.4769 19.0224 13.7295 19.0206 13.9935L19.0066 16.0005H18.9996C18.204 16.0005 17.4409 16.3166 16.8783 16.8792C16.3157 17.4418 15.9996 18.2048 15.9996 19.0005V19.0145L14.0066 19.0005H13.9996C13.7344 18.9996 13.4797 19.104 13.2915 19.2909C13.1033 19.4778 12.997 19.7318 12.9961 19.997C12.9952 20.2622 13.0996 20.5169 13.2865 20.7051C13.4734 20.8933 13.7274 20.9995 13.9926 21.0005L15.9996 21.0145C16.0033 21.8077 16.321 22.5672 16.8832 23.1268C17.4454 23.6863 18.2064 24.0005 18.9996 24.0005H20.9996C21.7952 24.0005 22.5583 23.6844 23.1209 23.1218C23.6835 22.5592 23.9996 21.7961 23.9996 21.0005V19.0005C23.9996 18.206 23.6845 17.444 23.1234 16.8816C22.5623 16.3192 21.801 16.0023 21.0066 16.0005V16.0005Z" fill="#767171"/>
      <path d="M10.007 19.0215L8 19.0075V19.0005C8 18.2048 7.68393 17.4418 7.12132 16.8792C6.55871 16.3166 5.79565 16.0005 5 16.0005H4.986L5 14.0075C5.00092 13.8762 4.97597 13.7459 4.92656 13.6243C4.87716 13.5026 4.80427 13.3918 4.71206 13.2983C4.61985 13.2048 4.51013 13.1304 4.38915 13.0793C4.26818 13.0282 4.13832 13.0014 4.007 13.0005H4C3.73599 13.0005 3.48269 13.1049 3.29536 13.2909C3.10802 13.4769 3.00185 13.7295 3 13.9935L2.986 16.0005C2.19278 16.0042 1.43331 16.3219 0.873724 16.8841C0.314139 17.4463 -8.63726e-06 18.2073 1.78109e-10 19.0005L1.78109e-10 21.0005C1.7811e-10 21.7961 0.31607 22.5592 0.87868 23.1218C1.44129 23.6844 2.20435 24.0005 3 24.0005H5C5.79444 24.0005 6.55644 23.6854 7.11885 23.1243C7.68126 22.5632 7.99815 21.8019 8 21.0075L9.994 21.0215H10C10.2652 21.0224 10.5199 20.9179 10.7081 20.7311C10.8963 20.5442 11.0026 20.2902 11.0035 20.025C11.0044 19.7598 10.9 19.505 10.7131 19.3168C10.5262 19.1287 10.2722 19.0224 10.007 19.0215V19.0215Z" fill="#767171"/>
    </g>
    <defs>
      <clipPath id="clip0_744_27890">
        <rect width="24" height="24" fill="white"/>
      </clipPath>
    </defs>
  </symbol>

  <symbol xmlns="http://www.w3.org/2000/svg" viewBox="0 0 24 24" id="banks">
    <g clip-path="url(#clip0_744_27896)">
      <path d="M0.290658 8.55206C0.0751807 8.15238 -0.0246469 7.70056 0.00237884 7.24731C0.0294046 6.79405 0.182214 6.35729 0.443658 5.98606C0.870917 5.35917 1.4431 4.84462 2.11166 4.48606L9.61266 0.582055C10.3499 0.198686 11.1687 -0.00146484 11.9997 -0.00146484C12.8306 -0.00146484 13.6494 0.198686 14.3867 0.582055L21.8867 4.48906C22.5552 4.84762 23.1274 5.36217 23.5547 5.98906C23.8161 6.36029 23.9689 6.79705 23.9959 7.25031C24.023 7.70356 23.9231 8.15538 23.7077 8.55506C23.4757 8.99389 23.1277 9.36066 22.7018 9.61544C22.2758 9.87023 21.788 10.0033 21.2917 10.0001H2.70766C2.21082 10.0032 1.72266 9.86976 1.29645 9.61442C0.87023 9.35908 0.522317 8.9916 0.290658 8.55206V8.55206ZM22.9997 22.0001C22.9997 21.4696 22.7889 20.9609 22.4139 20.5858C22.0388 20.2108 21.5301 20.0001 20.9997 20.0001V12.0001H18.9997V20.0001H15.9997V12.0001H13.9997V20.0001H9.99966V12.0001H7.99966V20.0001H4.99966V12.0001H2.99966V20.0001C2.46923 20.0001 1.96052 20.2108 1.58545 20.5858C1.21037 20.9609 0.999659 21.4696 0.999659 22.0001C0.734442 22.0001 0.480088 22.1054 0.292552 22.293C0.105015 22.4805 -0.000341587 22.7348 -0.000341587 23.0001C-0.000341587 23.2653 0.105015 23.5196 0.292552 23.7072C0.480088 23.8947 0.734442 24.0001 0.999659 24.0001H22.9997C23.2649 24.0001 23.5192 23.8947 23.7068 23.7072C23.8943 23.5196 23.9997 23.2653 23.9997 23.0001C23.9997 22.7348 23.8943 22.4805 23.7068 22.293C23.5192 22.1054 23.2649 22.0001 22.9997 22.0001Z" fill="#767171"/>
    </g>
    <defs>
      <clipPath id="clip0_744_27896">
        <rect width="24" height="24" fill="white"/>
      </clipPath>
    </defs>
  </symbol>

  <symbol width="33" height="15" viewBox="0 0 33 15" xmlns="http://www.w3.org/2000/svg" id="arrow">
    <path d="M32.7071 8.20711C33.0976 7.81658 33.0976 7.18342 32.7071 6.79289L26.3431 0.428932C25.9526 0.0384078 25.3195 0.0384078 24.9289 0.428932C24.5384 0.819457 24.5384 1.45262 24.9289 1.84315L30.5858 7.5L24.9289 13.1569C24.5384 13.5474 24.5384 14.1805 24.9289 14.5711C25.3195 14.9616 25.9526 14.9616 26.3431 14.5711L32.7071 8.20711ZM0 8.5H32V6.5H0V8.5Z"/>
  </symbol>

  <symbol width="16" height="16" viewBox="0 0 16 16" fill="none" xmlns="http://www.w3.org/2000/svg" id="arrow-down-icon">
    <path d="M4 6L8 10L12 6" stroke="#9C9898" stroke-width="1.5" stroke-linecap="round" stroke-linejoin="round"/>
  </symbol>

  <symbol viewBox="0 0 24 24" fill="none" xmlns="http://www.w3.org/2000/svg" id="audit">
    <g clip-path="url(#clip0_707_51654)">
      <path d="M12 0C9.62662 0 7.30655 0.703788 5.33316 2.02236C3.35977 3.34094 1.8217 5.21509 0.913446 7.4078C0.00519419 9.60051 -0.232446 12.0133 0.230577 14.3411C0.693599 16.6689 1.83649 18.8071 3.51472 20.4853C5.19295 22.1635 7.33114 23.3064 9.65892 23.7694C11.9867 24.2324 14.3995 23.9948 16.5922 23.0866C18.7849 22.1783 20.6591 20.6402 21.9776 18.6668C23.2962 16.6935 24 14.3734 24 12C23.9966 8.81846 22.7312 5.76821 20.4815 3.51852C18.2318 1.26883 15.1815 0.00344108 12 0V0ZM13 11.879C13.0001 12.0485 12.9571 12.2153 12.8751 12.3636C12.793 12.5119 12.6746 12.637 12.531 12.727L8.691 15.127C8.57938 15.1967 8.45511 15.2438 8.3253 15.2655C8.19549 15.2872 8.06267 15.2831 7.93443 15.2535C7.8062 15.2239 7.68505 15.1693 7.57791 15.0929C7.47077 15.0164 7.37973 14.9196 7.31 14.808C7.24027 14.6964 7.1932 14.5721 7.1715 14.4423C7.14979 14.3125 7.15386 14.1797 7.18349 14.0514C7.21311 13.9232 7.2677 13.802 7.34414 13.6949C7.42058 13.5878 7.51738 13.4967 7.629 13.427L11 11.325V7C11 6.73478 11.1054 6.48043 11.2929 6.29289C11.4804 6.10536 11.7348 6 12 6C12.2652 6 12.5196 6.10536 12.7071 6.29289C12.8946 6.48043 13 6.73478 13 7V11.879Z" fill="#767171"/>
    </g>
    <defs>
      <clipPath id="clip0_707_51654">
        <rect width="24" height="24" fill="white"/>
      </clipPath>
    </defs>
  </symbol>

  <symbol width="16" height="16" viewBox="0 0 16 16" id="copy" fill="none" xmlns="http://www.w3.org/2000/svg">
    <g clip-path="url(#clip0_1530_32706)">
      <path d="M13.3333 6H7.33333C6.59695 6 6 6.59695 6 7.33333V13.3333C6 14.0697 6.59695 14.6667 7.33333 14.6667H13.3333C14.0697 14.6667 14.6667 14.0697 14.6667 13.3333V7.33333C14.6667 6.59695 14.0697 6 13.3333 6Z" stroke="#989C9C" stroke-linecap="round" stroke-linejoin="round"/>
      <path d="M3.33337 10.0007H2.66671C2.31309 10.0007 1.97395 9.86018 1.7239 9.61013C1.47385 9.36008 1.33337 9.02094 1.33337 8.66732V2.66732C1.33337 2.3137 1.47385 1.97456 1.7239 1.72451C1.97395 1.47446 2.31309 1.33398 2.66671 1.33398H8.66671C9.02033 1.33398 9.35947 1.47446 9.60952 1.72451C9.85956 1.97456 10 2.3137 10 2.66732V3.33398" stroke="#989C9C" stroke-linecap="round" stroke-linejoin="round"/>
    </g>
    <defs>
      <clipPath id="clip0_1530_32706">
        <rect width="16" height="16" fill="white"/>
      </clipPath>
    </defs>
  </symbol>

  <symbol width="128" height="128" viewBox="0 0 128 128" id="success" fill="none" xmlns="http://www.w3.org/2000/svg">
    <circle cx="64" cy="64" r="63" stroke="#13A500" stroke-width="2"/>
    <path d="M95 40.75L52.375 83.375L33 64" stroke="#13A500" stroke-width="4" stroke-linecap="round" stroke-linejoin="round"/>
  </symbol>

</svg>
